# xmcd CD database file
#
# Track frame offsets:
#	150
#	25706
#	53768
#	70780
#	83764
#	96245
#	116605
#	145850
#	164377
#	186920
#	210180
#	224845
#
# Disc length: 3352 seconds
#
# Revision: 3
# Processed by: cddbd v1.5.1PL2 Copyright (c) Steve Scherf et al.
# Submitted via: CDex 1.51
#
DISCID=a60d160c
DTITLE=Van Morrison - Magic Time
DYEAR=2005
DGENRE=Blues
TTITLE0=Stranded
TTITLE1=Celtic new year
TTITLE2=Keep mediocrity at bay
TTITLE3=Evening train
TTITLE4=This love of mine
TTITLE5=I'm confession'
TTITLE6=Just like greta
TTITLE7=Gypsy in my soul
TTITLE8=The lion this time
TTITLE9=Magic time
TTITLE10=They sold me out
TTITLE11=Carry on regardless
EXTD=YEAR: 2005
EXTT0=
EXTT1=
EXTT2=
EXTT3=
EXTT4=
EXTT5=
EXTT6=
EXTT7=
EXTT8=
EXTT9=
EXTT10=
EXTT11=
PLAYORDER=
